<svg xmlns="http://www.w3.org/2000/svg" xmlns:xlink="http://www.w3.org/1999/xlink" width="286.45pt" height="117.03pt" viewBox="0 0 286.45 117.03" version="1.1">
<defs>
<clipPath id="clip1">
  <path d="M 0 0 L 286.449219 0 L 286.449219 117.03125 L 0 117.03125 Z M 0 0 "/>
</clipPath>
</defs>
<g id="surface1">
<g clip-path="url(#clip1)" clip-rule="nonzero">
<path style=" stroke:none;fill-rule:nonzero;fill:#E3061B;fill-opacity:1;" d="M 286.449219 117.03125 L 0 117.03125 L 0 -0.00390625 L 286.449219 -0.00390625 L 286.449219 117.03125 "/>
</g>
<path style=" stroke:none;fill-rule:nonzero;fill:rgb(100%,100%,100%);fill-opacity:1;" d="M 109.511719 106.804688 L 84.589844 106.804688 L 84.589844 11.828125 L 109.511719 11.828125 L 109.511719 106.804688 "/>
<path style=" stroke:none;fill-rule:nonzero;fill:rgb(100%,100%,100%);fill-opacity:1;" d="M 211.878906 107.082031 L 194.726563 70.515625 L 211.296875 43.074219 L 184.011719 43.074219 L 173.152344 61.0625 L 173.152344 11.828125 L 150.921875 11.828125 L 150.921875 106.804688 L 173.152344 106.804688 L 173.152344 86.777344 L 182.675781 107.082031 L 211.878906 107.082031 "/>
<path style=" stroke:none;fill-rule:nonzero;fill:rgb(100%,100%,100%);fill-opacity:1;" d="M 277.078125 107.082031 L 259.929688 70.515625 L 276.496094 43.074219 L 249.214844 43.074219 L 238.355469 61.0625 L 238.355469 11.828125 L 216.121094 11.828125 L 216.121094 106.804688 L 238.355469 106.804688 L 238.355469 86.777344 L 247.878906 107.082031 L 277.078125 107.082031 "/>
<path style=" stroke:none;fill-rule:nonzero;fill:rgb(100%,100%,100%);fill-opacity:1;" d="M 142.519531 106.96875 L 117.597656 106.96875 L 117.597656 42.949219 L 142.519531 42.949219 L 142.519531 106.96875 "/>
<path style=" stroke:none;fill-rule:nonzero;fill:rgb(100%,100%,100%);fill-opacity:1;" d="M 144.230469 24.117188 C 144.230469 31.945313 137.886719 38.292969 130.058594 38.292969 C 122.230469 38.292969 115.886719 31.945313 115.886719 24.117188 C 115.886719 16.289063 122.230469 9.945313 130.058594 9.945313 C 137.886719 9.945313 144.230469 16.289063 144.230469 24.117188 "/>
<path style=" stroke:none;fill-rule:nonzero;fill:rgb(100%,100%,100%);fill-opacity:1;" d="M 63.105469 58.1875 C 63.105469 58.1875 78.792969 55.925781 78.792969 37.457031 C 78.792969 17.707031 60.84375 11.828125 42.265625 11.828125 L 9.371094 11.828125 L 9.371094 106.804688 L 42.265625 106.804688 C 42.265625 106.804688 79.6875 109.832031 79.6875 79.667969 C 79.6875 69.871094 74.414063 58.1875 63.105469 58.1875 Z M 38.183594 32.957031 C 38.183594 32.957031 50.207031 31.429688 50.207031 40.515625 C 50.207031 49.601563 38.183594 48.355469 38.183594 48.355469 Z M 38.242188 85.421875 L 38.242188 68.15625 C 38.242188 68.15625 51.425781 66.445313 51.425781 76.632813 C 51.425781 86.816406 38.242188 85.421875 38.242188 85.421875 "/>
</g>
</svg>